<svg width="11" height="12" viewBox="0 0 11 12" fill="none" xmlns="http://www.w3.org/2000/svg">
<path d="M6.03125 0.980796L10.7781 5.53161C10.8485 5.59904 10.9044 5.67929 10.9425 5.76772C10.9807 5.85615 11.0003 5.95101 11.0003 6.04682C11.0003 6.14263 10.9807 6.2375 10.9425 6.32593C10.9044 6.41436 10.8485 6.49461 10.7781 6.56204L6.02813 11.1189C5.8868 11.2535 5.69619 11.3288 5.4978 11.3282C5.2994 11.3276 5.10926 11.2513 4.96875 11.1159L4.28438 10.4541C4.21298 10.3846 4.15683 10.3019 4.1193 10.2109C4.08177 10.12 4.06363 10.0226 4.06596 9.92467C4.0683 9.82675 4.09106 9.7303 4.13289 9.64109C4.17472 9.55189 4.23475 9.47177 4.30938 9.40554L6.73438 7.25705H0.750002C0.651442 7.25729 0.553803 7.23869 0.462697 7.20233C0.371592 7.16597 0.288814 7.11256 0.219121 7.04517C0.149428 6.97778 0.0941925 6.89773 0.0565891 6.80964C0.0189857 6.72154 -0.000244975 6.62713 2.35573e-06 6.53182V5.56485C-0.000244975 5.46954 0.0189857 5.37513 0.0565891 5.28703C0.0941925 5.19894 0.149428 5.11889 0.219121 5.0515C0.288814 4.98411 0.371592 4.9307 0.462697 4.89434C0.553803 4.85798 0.651442 4.83938 0.750002 4.83962H6.73438L4.30938 2.69113C4.23516 2.62489 4.17555 2.54485 4.1341 2.45579C4.09266 2.36673 4.07025 2.2705 4.0682 2.17286C4.06616 2.07522 4.08453 1.97819 4.12222 1.88759C4.1599 1.79698 4.21612 1.71467 4.2875 1.64559L4.97188 0.983817C5.11206 0.847788 5.30232 0.771077 5.50092 0.770511C5.69952 0.769944 5.89024 0.845569 6.03125 0.980796Z" fill="#213F7D"/>
</svg>
